<svg xmlns="http://www.w3.org/2000/svg" viewBox="0 0 657 444" width="1280">
  <g id="logoIcon" transform="rotate(-40) translate(-260 ,135) scale(3.2)">
    <path d="M109.844 131.636s53.486-39.626 53.486-74.77c0-19.444-13.12-28.21-26.516-28.21-14.135 0-26.97 18.756-26.97 18.756s-11.45-18.756-26.97-18.756c-16.8 0-26.516 12.28-26.516 27.584 0 36.285 53.486 75.396 53.486 75.396" fill="rgba(237,39,144,0.07)"></path>
    <path d="M46.25 148.75h-5.313c-7.397 0-12.812-1.25-16.25-3.75-3.437-2.5-5.756-5.886-6.952-10.156-1.2-4.27-1.824-11.094-1.875-20.47-.054-9.374-.366-16.015-.938-19.92-.573-3.908-2.03-6.954-4.375-9.14-2.343-2.19-5.86-3.385-10.547-3.595V67.03c5 0 8.696-1.328 11.094-3.984 2.395-2.656 3.75-5.883 4.062-9.687.313-3.802.52-10.99.625-21.564.104-10.57 1.225-17.707 3.36-21.406 2.135-3.696 4.74-6.353 7.812-7.97C30.026.81 34.688 0 40.94 0h5.312v14.063h-3.438c-3.647 0-6.327.522-8.047 1.562-1.72 1.042-2.813 2.63-3.28 4.765-.47 2.136-.704 6.016-.704 11.64 0 15.524-.99 25.68-2.968 30.47-1.98 4.793-5.835 8.75-11.562 11.875 3.02 1.46 5.65 3.515 7.89 6.17 2.24 2.657 3.906 6.044 5 10.157 1.094 4.117 1.64 10.86 1.64 20.236 0 9.374.21 15.234.626 17.578.415 2.343 1.51 3.958 3.282 4.843 1.77.884 5.624 1.328 11.562 1.328v14.062z" fill="rgba(255,255,255,0.07)"></path>
    <path d="M219.688 81.72c-4.585.21-8.074 1.38-10.47 3.515-2.396 2.135-3.88 5.183-4.453 9.14-.572 3.96-.885 10.65-.937 20.078-.053 9.428-.703 16.277-1.953 20.547s-3.593 7.63-7.03 10.08c-3.438 2.445-8.805 3.67-16.095 3.67h-5.312v-14.062c5.103 0 8.516-.234 10.235-.703 1.72-.47 2.94-1.382 3.67-2.735.73-1.352 1.174-3.41 1.33-6.17.156-2.76.234-8.91.234-18.44 0-9.53 1.223-16.69 3.672-21.484 2.445-4.79 6.065-8.383 10.858-10.78-4.272-2.29-7.42-5-9.453-8.126-2.03-3.125-3.386-7.03-4.062-11.72-.68-4.686-1.016-13.28-1.016-25.78 0-6.457-.86-10.52-2.578-12.187-1.72-1.665-4.872-2.5-9.455-2.5h-3.437V0h5.313c7.188 0 12.447 1.148 15.782 3.438 3.332 2.292 5.702 5.443 7.108 9.452 1.407 4.01 2.162 10.758 2.267 20.235.102 9.48.312 16.148.625 20 .312 3.855 1.665 7.136 4.062 9.844 2.395 2.71 6.094 4.06 11.094 4.06v14.69z" fill="rgba(255,255,255,0.07)"></path>
  </g>
  <g id="logoIcon" transform="rotate(-40) translate(-125 ,70) scale(1.5)">
    <path d="M109.844 131.636s53.486-39.626 53.486-74.77c0-19.444-13.12-28.21-26.516-28.21-14.135 0-26.97 18.756-26.97 18.756s-11.45-18.756-26.97-18.756c-16.8 0-26.516 12.28-26.516 27.584 0 36.285 53.486 75.396 53.486 75.396" fill="#ed2790"></path>
    <path d="M46.25 148.75h-5.313c-7.397 0-12.812-1.25-16.25-3.75-3.437-2.5-5.756-5.886-6.952-10.156-1.2-4.27-1.824-11.094-1.875-20.47-.054-9.374-.366-16.015-.938-19.92-.573-3.908-2.03-6.954-4.375-9.14-2.343-2.19-5.86-3.385-10.547-3.595V67.03c5 0 8.696-1.328 11.094-3.984 2.395-2.656 3.75-5.883 4.062-9.687.313-3.802.52-10.99.625-21.564.104-10.57 1.225-17.707 3.36-21.406 2.135-3.696 4.74-6.353 7.812-7.97C30.026.81 34.688 0 40.94 0h5.312v14.063h-3.438c-3.647 0-6.327.522-8.047 1.562-1.72 1.042-2.813 2.63-3.28 4.765-.47 2.136-.704 6.016-.704 11.64 0 15.524-.99 25.68-2.968 30.47-1.98 4.793-5.835 8.75-11.562 11.875 3.02 1.46 5.65 3.515 7.89 6.17 2.24 2.657 3.906 6.044 5 10.157 1.094 4.117 1.64 10.86 1.64 20.236 0 9.374.21 15.234.626 17.578.415 2.343 1.51 3.958 3.282 4.843 1.77.884 5.624 1.328 11.562 1.328v14.062z" fill="#ffffff"></path>
    <path d="M219.688 81.72c-4.585.21-8.074 1.38-10.47 3.515-2.396 2.135-3.88 5.183-4.453 9.14-.572 3.96-.885 10.65-.937 20.078-.053 9.428-.703 16.277-1.953 20.547s-3.593 7.63-7.03 10.08c-3.438 2.445-8.805 3.67-16.095 3.67h-5.312v-14.062c5.103 0 8.516-.234 10.235-.703 1.72-.47 2.94-1.382 3.67-2.735.73-1.352 1.174-3.41 1.33-6.17.156-2.76.234-8.91.234-18.44 0-9.53 1.223-16.69 3.672-21.484 2.445-4.79 6.065-8.383 10.858-10.78-4.272-2.29-7.42-5-9.453-8.126-2.03-3.125-3.386-7.03-4.062-11.72-.68-4.686-1.016-13.28-1.016-25.78 0-6.457-.86-10.52-2.578-12.187-1.72-1.665-4.872-2.5-9.455-2.5h-3.437V0h5.313c7.188 0 12.447 1.148 15.782 3.438 3.332 2.292 5.702 5.443 7.108 9.452 1.407 4.01 2.162 10.758 2.267 20.235.102 9.48.312 16.148.625 20 .312 3.855 1.665 7.136 4.062 9.844 2.395 2.71 6.094 4.06 11.094 4.06v14.69z" fill="#ffffff"></path>
  </g>
</svg>
