<svg xmlns="http://www.w3.org/2000/svg" width="0" height="0" class='noshow'><defs><clipPath><path d="M0 792h1224V0H0v792z"/></clipPath><g id='logoText'><path d="M112.5 96.25C100.207 112.085 83.332 120 61.875 120c-18.125 0-32.97-5.728-44.53-17.188C5.78 91.356 0 76.876 0 59.376c0-10.832 2.68-20.832 8.046-30C13.41 20.21 20.833 13.023 30.313 7.812 39.79 2.606 50.025 0 61.014 0c10.99 0 20.834 2.11 29.533 6.328 8.696 4.218 15.96 10.39 21.796 18.516l-10.313 7.968C91.197 19.688 77.813 13.125 61.876 13.125c-13.022 0-24.245 4.585-33.672 13.75-9.428 9.168-14.14 20.39-14.14 33.672 0 13.282 4.608 24.374 13.827 33.282 9.22 8.904 21.173 13.358 35.86 13.358 14.688 0 27.446-6.302 38.28-18.907l10.47 7.97z" fill="#373535"/><path d="M187.343 106.875c13.02 0 24.036-4.426 33.046-13.28 9.01-8.854 13.516-19.947 13.516-33.282 0-13.333-4.558-24.532-13.673-33.594-9.115-9.064-20.078-13.595-32.89-13.595-13.125 0-24.09 4.558-32.89 13.67-8.804 9.117-13.204 20.21-13.204 33.282 0 13.074 4.53 24.142 13.593 33.204 9.063 9.064 19.895 13.595 32.5 13.595M186.873 0c11.146 0 21.408 2.63 30.783 7.89s16.743 12.528 22.11 21.797c5.363 9.273 8.046 19.35 8.046 30.234 0 10.888-2.656 20.966-7.97 30.236-5.31 9.273-12.604 16.563-21.874 21.875-9.272 5.314-19.35 7.97-30.235 7.97-10.885 0-21.015-2.63-30.39-7.89s-16.72-12.5-22.03-21.72c-5.314-9.218-7.97-19.27-7.97-30.156 0-10.884 2.656-20.99 7.97-30.313 5.31-9.32 12.578-16.64 21.796-21.95C166.327 2.655 176.25 0 186.873 0" fill="#373535"/><path d="M391.716 117.188h-13.28l-.044-73.035-51.13 73.035-51.51-71.78.026 71.78H262.81V2.813l64.53 90.78 64.376-90.78v114.375z" fill="#373535"/><path d="M430.932 117.188h-13.437V2.81h13.437V117.19z" fill="#373535"/><path d="M542.338 117.188l-76.563-80.47v80.47h-13.75V2.813l77.032 81.563V2.813h13.28v114.375z" fill="#373535"/><path d="M682.495 61.25c-.313 18.543-5.703 32.97-16.172 43.28-10.468 10.314-24.245 15.47-41.328 15.47-19.585 0-35.21-6.015-46.875-18.046-11.668-12.033-17.5-26.12-17.5-42.266 0-16.146 5.833-30.13 17.5-41.954C589.785 5.912 604.84 0 623.276 0c10 0 19.298 1.85 27.892 5.546 8.593 3.7 17.003 9.352 25.233 16.954l-10.31 9.844c-6.356-6.145-13.23-10.86-20.626-14.142-7.398-3.28-15-4.92-22.813-4.92-7.81 0-15.572 2.084-23.28 6.25-7.71 4.167-13.75 9.792-18.125 16.874-4.375 7.085-6.563 14.742-6.563 22.97 0 12.812 4.818 23.983 14.453 33.514 9.635 9.533 21.692 14.298 36.172 14.298 10.728 0 20-2.943 27.813-8.83 7.813-5.883 12.603-13.93 14.375-24.14H631.87V61.25h50.625z" fill="#373535"/><path d="M757.96 117.188h-56.718V2.813h13.594V104.22h43.125v12.968z" fill="#373535"/><path d="M840.15 16.094h-53.126v32.813h52.656v13.125h-52.656v41.875h52.656v13.28h-66.093V2.814h66.562v13.28z" fill="#373535"/></g><g id='logoIcon'><path d="M109.844 131.636s53.486-39.626 53.486-74.77c0-19.444-13.12-28.21-26.516-28.21-14.135 0-26.97 18.756-26.97 18.756s-11.45-18.756-26.97-18.756c-16.8 0-26.516 12.28-26.516 27.584 0 36.285 53.486 75.396 53.486 75.396" fill="#ed2790"/><path d="M46.25 148.75h-5.313c-7.397 0-12.812-1.25-16.25-3.75-3.437-2.5-5.756-5.886-6.952-10.156-1.2-4.27-1.824-11.094-1.875-20.47-.054-9.374-.366-16.015-.938-19.92-.573-3.908-2.03-6.954-4.375-9.14-2.343-2.19-5.86-3.385-10.547-3.595V67.03c5 0 8.696-1.328 11.094-3.984 2.395-2.656 3.75-5.883 4.062-9.687.313-3.802.52-10.99.625-21.564.104-10.57 1.225-17.707 3.36-21.406 2.135-3.696 4.74-6.353 7.812-7.97C30.026.81 34.688 0 40.94 0h5.312v14.063h-3.438c-3.647 0-6.327.522-8.047 1.562-1.72 1.042-2.813 2.63-3.28 4.765-.47 2.136-.704 6.016-.704 11.64 0 15.524-.99 25.68-2.968 30.47-1.98 4.793-5.835 8.75-11.562 11.875 3.02 1.46 5.65 3.515 7.89 6.17 2.24 2.657 3.906 6.044 5 10.157 1.094 4.117 1.64 10.86 1.64 20.236 0 9.374.21 15.234.626 17.578.415 2.343 1.51 3.958 3.282 4.843 1.77.884 5.624 1.328 11.562 1.328v14.062z" fill="#00b0f0"/><path d="M219.688 81.72c-4.585.21-8.074 1.38-10.47 3.515-2.396 2.135-3.88 5.183-4.453 9.14-.572 3.96-.885 10.65-.937 20.078-.053 9.428-.703 16.277-1.953 20.547s-3.593 7.63-7.03 10.08c-3.438 2.445-8.805 3.67-16.095 3.67h-5.312v-14.062c5.103 0 8.516-.234 10.235-.703 1.72-.47 2.94-1.382 3.67-2.735.73-1.352 1.174-3.41 1.33-6.17.156-2.76.234-8.91.234-18.44 0-9.53 1.223-16.69 3.672-21.484 2.445-4.79 6.065-8.383 10.858-10.78-4.272-2.29-7.42-5-9.453-8.126-2.03-3.125-3.386-7.03-4.062-11.72-.68-4.686-1.016-13.28-1.016-25.78 0-6.457-.86-10.52-2.578-12.187-1.72-1.665-4.872-2.5-9.455-2.5h-3.437V0h5.313c7.188 0 12.447 1.148 15.782 3.438 3.332 2.292 5.702 5.443 7.108 9.452 1.407 4.01 2.162 10.758 2.267 20.235.102 9.48.312 16.148.625 20 .312 3.855 1.665 7.136 4.062 9.844 2.395 2.71 6.094 4.06 11.094 4.06v14.69z" fill="#00b0f0"/></g></defs></svg>
